Normalized EMG Linear Envelopes
nRows=231
nColumns=4

endheader
time	 med_gas_r	  soleus_r	 tib_ant_r	
3.09375	  0.008501	  0.009936	  0.003535	
3.12702	  0.008581	  0.010026	  0.003613	
3.16028	  0.008689	  0.010135	  0.003660	
3.19355	  0.008831	  0.010281	  0.003652	
3.22681	  0.008991	  0.010458	  0.003590	
3.26008	  0.009139	  0.010635	  0.003501	
3.29335	  0.009261	  0.010766	  0.003425	
3.32661	  0.009356	  0.010822	  0.003395	
3.35988	  0.009434	  0.010802	  0.003431	
3.39315	  0.009497	  0.010737	  0.003531	
3.42641	  0.009539	  0.010672	  0.003687	
3.45968	  0.009551	  0.010643	  0.003893	
3.49294	  0.009525	  0.010670	  0.004152	
3.52621	  0.009466	  0.010758	  0.004471	
3.55948	  0.009389	  0.010893	  0.004837	
3.59274	  0.009305	  0.011047	  0.005200	
3.62601	  0.009218	  0.011179	  0.005477	
3.65927	  0.009122	  0.011240	  0.005591	
3.69254	  0.009014	  0.011194	  0.005511	
3.72581	  0.008904	  0.011033	  0.005277	
3.75907	  0.008818	  0.010780	  0.004973	
3.79234	  0.008796	  0.010483	  0.004686	
3.8256	  0.008874	  0.010199	  0.004467	
3.85887	  0.009064	  0.009978	  0.004339	
3.89214	  0.009346	  0.009847	  0.004311	
3.9254	  0.009663	  0.009814	  0.004404	
3.95867	  0.009938	  0.009867	  0.004656	
3.99194	  0.010111	  0.009979	  0.005095	
4.0252	  0.010164	  0.010114	  0.005706	
4.05847	  0.010130	  0.010229	  0.006405	
4.09173	  0.010070	  0.010293	  0.007059	
4.125	  0.010024	  0.010284	  0.007538	
4.15827	  0.009987	  0.010203	  0.007763	
4.19153	  0.009913	  0.010064	  0.007706	
4.2248	  0.009756	  0.009895	  0.007343	
4.25806	  0.009499	  0.009719	  0.006624	
4.29133	  0.009172	  0.009559	  0.005498	
4.3246	  0.008842	  0.009429	  0.003984	
4.35786	  0.008583	  0.009343	  0.002234	
4.39113	  0.008464	  0.009315	  0.000554	
4.4244	  0.008521	  0.009359	 -0.000625	
4.45766	  0.008760	  0.009487	 -0.000776	
4.49093	  0.009147	  0.009698	  0.000693	
4.52419	  0.009624	  0.009974	  0.004439	
4.55746	  0.010123	  0.010289	  0.011195	
4.59073	  0.010603	  0.010623	  0.021689	
4.62399	  0.011063	  0.010978	  0.036373	
4.65726	  0.011545	  0.011372	  0.054949	
4.69052	  0.012096	  0.011818	  0.076002	
4.72379	  0.012738	  0.012297	  0.097157	
4.75706	  0.013440	  0.012761	  0.115946	
4.79032	  0.014128	  0.013155	  0.130926	
4.82359	  0.014718	  0.013468	  0.142281	
4.85685	  0.015160	  0.013773	  0.151477	
4.89012	  0.015477	  0.014228	  0.160350	
4.92339	  0.015788	  0.015042	  0.170404	
4.95665	  0.016286	  0.016420	  0.182741	
4.98992	  0.017189	  0.018525	  0.198340	
5.02319	  0.018686	  0.021470	  0.218109	
5.05645	  0.020906	  0.025335	  0.242541	
5.08972	  0.023914	  0.030165	  0.271280	
5.12298	  0.027737	  0.035954	  0.303002	
5.15625	  0.032356	  0.042618	  0.335751	
5.18952	  0.037641	  0.049989	  0.367592	
5.22278	  0.043264	  0.057826	  0.397336	
5.25605	  0.048709	  0.065819	  0.425043	
5.28931	  0.053447	  0.073599	  0.451969	
5.32258	  0.057226	  0.080817	  0.479774	
5.35585	  0.060268	  0.087284	  0.509244	
5.38911	  0.063179	  0.093101	  0.539296	
5.42238	  0.066601	  0.098648	  0.567160	
5.45565	  0.070801	  0.104346	  0.589814	
5.48891	  0.075501	  0.110339	  0.605696	
5.52218	  0.080060	  0.116307	  0.615380	
5.55544	  0.083890	  0.121638	  0.620843	
5.58871	  0.086817	  0.125885	  0.624163	
5.62198	  0.089193	  0.129168	  0.626659	
5.65524	  0.091716	  0.132176	  0.628829	
5.68851	  0.095054	  0.135674	  0.630757	
5.72177	  0.099436	  0.139866	  0.632618	
5.75504	  0.104411	  0.144078	  0.634943	
5.78831	  0.108983	  0.147078	  0.638432	
5.82157	  0.112164	  0.147870	  0.643413	
5.85484	  0.113601	  0.146435	  0.649412	
5.8881	  0.113807	  0.143827	  0.655232	
5.92137	  0.113796	  0.141593	  0.659374	
5.95464	  0.114467	  0.140964	  0.660481	
5.9879	  0.116183	  0.142399	  0.657786	
6.02117	  0.118723	  0.145595	  0.651699	
6.05444	  0.121463	  0.149750	  0.644244	
6.0877	  0.123638	  0.153863	  0.638643	
6.12097	  0.124606	  0.157029	  0.637716	
6.15423	  0.124042	  0.158676	  0.641991	
6.1875	  0.121909	  0.158606	  0.649189	
6.22077	  0.118265	  0.156812	  0.655947	
6.25403	  0.113146	  0.153307	  0.660626	
6.2873	  0.106741	  0.148187	  0.664839	
6.32056	  0.099699	  0.141896	  0.672322	
6.35383	  0.093170	  0.135390	  0.686134	
6.3871	  0.088400	  0.129945	  0.706547	
6.42036	  0.086115	  0.126653	  0.731134	
6.45363	  0.086170	  0.125882	  0.756435	
6.4869	  0.087703	  0.127004	  0.779313	
6.52016	  0.089639	  0.128616	  0.796936	
6.55343	  0.091197	  0.129229	  0.806047	
6.58669	  0.092105	  0.128070	  0.803013	
6.61996	  0.092549	  0.125474	  0.785239	
6.65323	  0.092984	  0.122638	  0.753075	
6.68649	  0.093974	  0.120933	  0.710728	
6.71976	  0.096030	  0.121257	  0.665421	
6.75302	  0.099423	  0.123690	  0.625238	
6.78629	  0.103981	  0.127496	  0.596827	
6.81956	  0.109080	  0.131406	  0.584005	
6.85282	  0.113880	  0.134143	  0.587541	
6.88609	  0.117710	  0.134978	  0.605824	
6.91935	  0.120304	  0.133993	  0.635775	
6.95262	  0.121701	  0.131848	  0.673400	
6.98589	  0.121960	  0.129238	  0.713774	
7.01915	  0.120990	  0.126535	  0.751040	
7.05242	  0.118685	  0.123907	  0.779315	
7.08569	  0.115260	  0.121685	  0.794672	
7.11895	  0.111424	  0.120512	  0.796895	
7.15222	  0.108215	  0.121016	  0.789408	
7.18548	  0.106529	  0.123318	  0.777221	
7.21875	  0.106664	  0.126889	  0.764585	
7.25202	  0.108165	  0.130891	  0.754142	
7.28528	  0.110088	  0.134656	  0.747498	
7.31855	  0.111499	  0.137848	  0.745615	
7.35181	  0.111916	  0.140306	  0.747975	
7.38508	  0.111431	  0.141893	  0.751437	
7.41835	  0.110483	  0.142571	  0.750583	
7.45161	  0.109476	  0.142508	  0.740148	
7.48488	  0.108499	  0.141962	  0.718081	
7.51815	  0.107307	  0.140981	  0.687094	
7.55141	  0.105542	  0.139352	  0.653665	
7.58468	  0.103050	  0.136918	  0.625235	
7.61794	  0.100056	  0.133939	  0.607294	
7.65121	  0.097069	  0.130985	  0.601712	
7.68448	  0.094562	  0.128393	  0.606651	
7.71774	  0.092700	  0.125876	  0.617477	
7.75101	  0.091355	  0.122776	  0.628152	
7.78427	  0.090394	  0.118805	  0.633033	
7.81754	  0.089973	  0.114564	  0.628919	
7.85081	  0.090583	  0.111342	  0.616433	
7.88407	  0.092768	  0.110366	  0.599561	
7.91734	  0.096717	  0.112102	  0.583300	
7.9506	  0.101950	  0.116130	  0.570967	
7.98387	  0.107328	  0.121518	  0.563172	
8.01714	  0.111446	  0.127296	  0.559103	
8.0504	  0.113235	  0.132686	  0.558816	
8.08367	  0.112435	  0.137103	  0.564342	
8.11694	  0.109645	  0.140178	  0.578274	
8.1502	  0.105896	  0.141838	  0.600646	
8.18347	  0.102093	  0.142305	  0.626755	
8.21673	  0.098699	  0.141912	  0.648333	
8.25	  0.095816	  0.140845	  0.657875	
8.28327	  0.093425	  0.139044	  0.652939	
8.31653	  0.091536	  0.136349	  0.637104	
8.3498	  0.090148	  0.132779	  0.617202	
8.38306	  0.089186	  0.128684	  0.599489	
8.41633	  0.088509	  0.124628	  0.587501	
8.4496	  0.087973	  0.121065	  0.582045	
8.48286	  0.087459	  0.118097	  0.582112	
8.51613	  0.086871	  0.115499	  0.585697	
8.5494	  0.086153	  0.112959	  0.590431	
8.58266	  0.085372	  0.110320	  0.594100	
8.61593	  0.084756	  0.107650	  0.594936	
8.64919	  0.084612	  0.105145	  0.591640	
8.68246	  0.085159	  0.103001	  0.583511	
8.71573	  0.086404	  0.101364	  0.570840	
8.74899	  0.088165	  0.100351	  0.555147	
8.78226	  0.090162	  0.100077	  0.538823	
8.81552	  0.092068	  0.100648	  0.524350	
8.84879	  0.093552	  0.102126	  0.513759	
8.88206	  0.094380	  0.104490	  0.508527	
8.91532	  0.094530	  0.107590	  0.509474	
8.94859	  0.094201	  0.111121	  0.516336	
8.98185	  0.093632	  0.114631	  0.527376	
9.01512	  0.092903	  0.117610	  0.539678	
9.04839	  0.091897	  0.119586	  0.550096	
9.08165	  0.090446	  0.120194	  0.556219	
9.11492	  0.088525	  0.119236	  0.556902	
9.14819	  0.086338	  0.116821	  0.552500	
9.18145	  0.084252	  0.113495	  0.544945	
9.21472	  0.082609	  0.110134	  0.537390	
9.24798	  0.081518	  0.107493	  0.533213	
9.28125	  0.080780	  0.105715	  0.534845	
9.31452	  0.080040	  0.104302	  0.543215	
9.34778	  0.079059	  0.102621	  0.558059	
9.38105	  0.077878	  0.100513	  0.578673	
9.41431	  0.076708	  0.098416	  0.604386	
9.44758	  0.075675	  0.096931	  0.634228	
9.48085	  0.074686	  0.096294	  0.665859	
9.51411	  0.073550	  0.096237	  0.694515	
9.54738	  0.072189	  0.096299	  0.713319	
9.58065	  0.070717	  0.096204	  0.715780	
9.61391	  0.069316	  0.095980	  0.699547	
9.64718	  0.068077	  0.095820	  0.668678	
9.68044	  0.066956	  0.095895	  0.632050	
9.71371	  0.065892	  0.096288	  0.598488	
9.74698	  0.064943	  0.097001	  0.572149	
9.78024	  0.064314	  0.097979	  0.551538	
9.81351	  0.064245	  0.099100	  0.532267	
9.84677	  0.064822	  0.100166	  0.510700	
9.88004	  0.065821	  0.100873	  0.485762	
9.91331	  0.066700	  0.100802	  0.458692	
9.94657	  0.066796	  0.099534	  0.432342	
9.97984	  0.065671	  0.096902	  0.410980	
10.0131	  0.063398	  0.093215	  0.399961	
10.0464	  0.060584	  0.089189	  0.404331	
10.0796	  0.058115	  0.085600	  0.426816	
10.1129	  0.056768	  0.082927	  0.466650	
10.1462	  0.056900	  0.081232	  0.519949	
10.1794	  0.058355	  0.080304	  0.580915	
10.2127	  0.060576	  0.079843	  0.642674	
10.246	  0.062837	  0.079570	  0.697563	
10.2792	  0.064461	  0.079218	  0.737650	
10.3125	  0.064973	  0.078493	  0.756153	
10.3458	  0.064152	  0.077081	  0.749439	
10.379	  0.062008	  0.074709	  0.718393	
10.4123	  0.058694	  0.071227	  0.668098	
10.4456	  0.054429	  0.066676	  0.605829	
10.4788	  0.049483	  0.061326	  0.538609	
10.5121	  0.044231	  0.055638	  0.471743	
10.5454	  0.039171	  0.050159	  0.408762	
10.5786	  0.034855	  0.045346	  0.352111	
10.6119	  0.031743	  0.041420	  0.303617	
10.6452	  0.030067	  0.038356	  0.264349	
10.6784	  0.029797	  0.035979	  0.234242	
10.7117	  0.030668	  0.034103	  0.212102	
10.745	  0.032283	  0.032614	  0.196137	
